<svg width="24.000000" height="24.000000" viewBox="0 0 24 24" fill="none" xmlns="http://www.w3.org/2000/svg" xmlns:xlink="http://www.w3.org/1999/xlink">
	<desc>
			Created with Pixso.
	</desc>
	<defs/>
	<rect id="bag" width="24.000000" height="24.000000" fill="#FFFFFF" fill-opacity="0"/>
	<rect id="bag" width="24.000000" height="24.000000" fill="#FFFFFF" fill-opacity="0"/>
	<path id="Vector" d="M5.18 6.38C5 6.38 4.79 6.29 4.65 6.16C4.36 5.87 4.36 5.39 4.65 5.1L8.28 1.47C8.57 1.17 9.05 1.17 9.34 1.47C9.63 1.76 9.63 2.23 9.34 2.53L5.71 6.16C5.56 6.29 5.37 6.38 5.18 6.38Z" fill="#343434" fill-opacity="1.000000" fill-rule="nonzero"/>
	<path id="Vector" d="M18.81 6.38C18.62 6.38 18.43 6.31 18.28 6.16L14.65 2.53C14.36 2.23 14.36 1.76 14.65 1.47C14.94 1.17 15.42 1.17 15.71 1.47L19.34 5.1C19.63 5.39 19.63 5.87 19.34 6.16C19.2 6.29 19 6.38 18.81 6.38Z" fill="#343434" fill-opacity="1.000000" fill-rule="nonzero"/>
	<path id="Vector" d="M20.2 10.6C20.13 10.6 20.07 10.6 20 10.6L19.77 10.6L4 10.6C3.3 10.61 2.5 10.61 1.91 10.03C1.45 9.58 1.25 8.88 1.25 7.85C1.25 5.1 3.26 5.1 4.21 5.1L19.78 5.1C20.74 5.1 22.75 5.1 22.75 7.85C22.75 8.89 22.54 9.58 22.08 10.03C21.56 10.55 20.86 10.6 20.2 10.6ZM4.21 9.1L20.01 9.1C20.45 9.11 20.87 9.11 21.02 8.97C21.09 8.89 21.24 8.66 21.24 7.85C21.24 6.72 20.96 6.6 19.77 6.6L4.21 6.6C3.03 6.6 2.75 6.72 2.75 7.85C2.75 8.66 2.9 8.89 2.96 8.97C3.11 9.1 3.54 9.1 3.97 9.1L4.21 9.1Z" fill="#343434" fill-opacity="1.000000" fill-rule="nonzero"/>
	<path id="Vector" d="M9.76 18.29C9.35 18.29 9.01 17.95 9.01 17.54L9.01 14C9.01 13.59 9.35 13.25 9.76 13.25C10.16 13.25 10.51 13.59 10.51 14L10.51 17.54C10.51 17.96 10.16 18.29 9.76 18.29Z" fill="#343434" fill-opacity="1.000000" fill-rule="nonzero"/>
	<path id="Vector" d="M14.35 18.29C13.95 18.29 13.6 17.95 13.6 17.54L13.6 14C13.6 13.59 13.95 13.25 14.35 13.25C14.76 13.25 15.1 13.59 15.1 14L15.1 17.54C15.1 17.96 14.76 18.29 14.35 18.29Z" fill="#343434" fill-opacity="1.000000" fill-rule="nonzero"/>
	<path id="Vector" d="M14.88 22.75L8.86 22.75C5.28 22.75 4.47 20.62 4.16 18.77L2.76 10.12C2.68 9.7 2.96 9.32 3.37 9.26C3.79 9.18 4.16 9.47 4.23 9.88L5.64 18.52C5.93 20.29 6.54 21.25 8.86 21.25L14.88 21.25C17.45 21.25 17.75 20.35 18.08 18.61L19.76 9.85C19.84 9.45 20.23 9.17 20.63 9.26C21.05 9.35 21.31 9.73 21.23 10.14L19.54 18.9C19.15 20.93 18.51 22.75 14.88 22.75Z" fill="#343434" fill-opacity="1.000000" fill-rule="nonzero"/>
	<g opacity="0.000000"/>
</svg>
