<svg width="24.000000" height="24.000000" viewBox="0 0 24 24" fill="none" xmlns="http://www.w3.org/2000/svg" xmlns:xlink="http://www.w3.org/1999/xlink">
	<desc>
			Created with Pixso.
	</desc>
	<defs/>
	<rect id="heart" width="24.000000" height="24.000000" fill="#FFFFFF" fill-opacity="0"/>
	<path id="Vector" d="M12 21.65C11.68 21.65 11.38 21.61 11.13 21.52C7.32 20.2 1.25 15.56 1.25 8.68C1.25 5.19 4.08 2.35 7.56 2.35C9.25 2.35 10.83 3.01 12 4.19C13.16 3.01 14.75 2.35 16.43 2.35C19.91 2.35 22.75 5.2 22.75 8.68C22.75 15.57 16.67 20.2 12.86 21.52C12.61 21.61 12.31 21.65 12 21.65ZM7.56 3.85C4.9 3.85 2.75 6.02 2.75 8.68C2.75 15.52 9.32 19.32 11.62 20.11C11.81 20.17 12.2 20.17 12.37 20.11C14.67 19.32 21.26 15.53 21.26 8.68C21.26 6.02 19.1 3.85 16.45 3.85C14.92 3.85 13.52 4.56 12.61 5.79C12.33 6.17 11.68 6.17 11.4 5.79C10.48 4.55 9.08 3.85 7.56 3.85Z" fill="#343434" fill-opacity="1.000000" fill-rule="nonzero"/>
	<g opacity="0.000000"/>
</svg>
