<svg width="22.000000" height="22.000000" viewBox="0 0 22 22" fill="none" xmlns="http://www.w3.org/2000/svg" xmlns:xlink="http://www.w3.org/1999/xlink">
	<desc>
			Created with Pixso.
	</desc>
	<defs/>
	<path id="Vector" d="M0 10.25C0 15.9 4.6 20.5 10.25 20.5C15.89 20.5 20.5 15.9 20.5 10.25C20.5 4.6 15.89 0 10.25 0C4.6 0 0 4.6 0 10.25ZM1.5 10.25C1.5 5.42 5.41 1.5 10.25 1.5C15.08 1.5 19 5.42 19 10.25C19 15.07 15.08 19 10.25 19C5.41 19 1.5 15.07 1.5 10.25ZM20.21 21.28C20.37 21.43 20.56 21.5 20.75 21.5C20.93 21.5 21.12 21.43 21.28 21.28C21.57 20.99 21.57 20.51 21.28 20.21L19.28 18.21C18.99 17.93 18.51 17.93 18.21 18.21C17.92 18.51 17.92 18.99 18.21 19.28L20.21 21.28Z" fill="#343434" fill-opacity="1.000000" fill-rule="evenodd"/>
</svg>
