<svg width="24.000000" height="24.000000" viewBox="0 0 24 24" fill="none" xmlns="http://www.w3.org/2000/svg" xmlns:xlink="http://www.w3.org/1999/xlink">
	<desc>
			Created with Pixso.
	</desc>
	<defs/>
	<path id="Vector" d="M7.09 0C3.17 0 0 3.17 0 7.09L0 16.9C0 20.82 3.17 24 7.09 24L16.9 24C20.82 24 24 20.82 24 16.9L24 7.09C24 3.17 20.82 0 16.9 0L7.09 0ZM18.54 4.36C19.14 4.36 19.63 4.85 19.63 5.45C19.63 6.05 19.14 6.54 18.54 6.54C17.94 6.54 17.45 6.05 17.45 5.45C17.45 4.85 17.94 4.36 18.54 4.36ZM12 6C15.31 6 18 8.68 18 12C18 15.31 15.31 18 12 18C8.68 18 6 15.31 6 12C6 8.68 8.68 6 12 6ZM12 7.09C9.29 7.09 7.09 9.29 7.09 12C7.09 14.7 9.29 16.9 12 16.9C14.7 16.9 16.9 14.7 16.9 12C16.9 9.29 14.7 7.09 12 7.09Z" fill="#343434" fill-opacity="1.000000" fill-rule="nonzero"/>
</svg>
