<svg width="24.000000" height="24.000000" viewBox="0 0 24 24" fill="none" xmlns="http://www.w3.org/2000/svg" xmlns:xlink="http://www.w3.org/1999/xlink">
	<desc>
			Created with Pixso.
	</desc>
	<defs/>
	<path id="Vector" d="M12 -0.82C18.62 -0.82 24 4.55 24 11.18C24 17.8 18.62 23.18 12 23.18C5.37 23.18 0 17.8 0 11.18C0 4.55 5.37 -0.82 12 -0.82ZM16.13 16.07C16.35 15.39 17.39 8.64 17.52 7.31C17.56 6.91 17.43 6.64 17.18 6.52C16.88 6.38 16.43 6.45 15.91 6.64C15.2 6.89 6.12 10.75 5.59 10.97C5.1 11.18 4.62 11.42 4.62 11.75C4.62 11.98 4.76 12.12 5.15 12.25C5.55 12.4 6.55 12.7 7.15 12.87C7.72 13.02 8.37 12.89 8.74 12.66C9.12 12.42 13.59 9.43 13.91 9.17C14.23 8.9 14.49 9.24 14.23 9.5C13.97 9.76 10.9 12.74 10.49 13.15C10 13.65 10.35 14.17 10.68 14.38C11.06 14.62 13.76 16.43 14.17 16.72C14.58 17.01 14.99 17.15 15.37 17.15C15.75 17.15 15.95 16.65 16.13 16.07Z" fill="#343434" fill-opacity="1.000000" fill-rule="nonzero"/>
</svg>
