<svg width="24.000000" height="27.000000" viewBox="0 0 24 27" fill="none" xmlns="http://www.w3.org/2000/svg" xmlns:xlink="http://www.w3.org/1999/xlink">
	<desc>
			Created with Pixso.
	</desc>
	<defs/>
	<path id="Vector" d="M23.3 5.8C22.85 4.21 21.97 2.95 20.68 2.06C19.04 0.93 17.16 0.53 15.54 0.29C13.29 -0.05 11.26 -0.09 9.32 0.14C7.5 0.37 6.13 0.72 4.89 1.29C2.44 2.42 0.97 4.24 0.52 6.7C0.3 7.9 0.16 8.98 0.07 10.01C-0.12 12.39 0.05 14.5 0.62 16.46C1.16 18.36 2.12 19.73 3.54 20.62C3.91 20.85 4.37 21.01 4.82 21.17C5.04 21.25 5.26 21.33 5.45 21.41L5.45 25.27C5.45 25.77 5.86 26.18 6.36 26.18C6.6 26.18 6.83 26.08 7 25.92L10.55 22.46C10.71 22.29 10.71 22.29 10.86 22.28C12.08 22.26 13.32 22.21 14.55 22.15C16.05 22.06 17.78 21.92 19.41 21.24C20.9 20.62 21.99 19.63 22.64 18.3C23.32 16.92 23.73 15.42 23.88 13.72C24.14 10.73 23.96 8.14 23.3 5.8ZM17.11 17.17C16.76 17.75 16.22 18.15 15.59 18.42C15.13 18.61 14.66 18.57 14.21 18.37C10.41 16.77 7.43 14.23 5.46 10.59C5.06 9.84 4.77 9.02 4.45 8.23C4.38 8.06 4.39 7.87 4.36 7.7C4.39 6.41 5.37 5.69 6.36 5.47C6.74 5.39 7.08 5.52 7.36 5.79C8.14 6.54 8.76 7.4 9.22 8.37C9.42 8.79 9.33 9.17 8.98 9.48C8.91 9.55 8.84 9.61 8.76 9.67C7.97 10.26 7.86 10.71 8.28 11.6C8.99 13.12 10.18 14.14 11.72 14.77C12.12 14.94 12.5 14.86 12.81 14.53C12.85 14.49 12.9 14.44 12.93 14.39C13.54 13.38 14.42 13.48 15.23 14.06C15.76 14.44 16.28 14.84 16.81 15.22C17.61 15.81 17.6 16.37 17.11 17.17ZM12.55 6.7C12.35 6.7 12.14 6.71 11.94 6.75C11.6 6.8 11.28 6.57 11.22 6.23C11.17 5.89 11.4 5.57 11.74 5.52C12 5.47 12.28 5.45 12.55 5.45C15.25 5.45 17.45 7.65 17.45 10.35C17.45 10.62 17.43 10.9 17.38 11.16C17.33 11.47 17.07 11.68 16.77 11.68C16.73 11.68 16.7 11.68 16.66 11.67C16.33 11.62 16.1 11.3 16.15 10.96C16.19 10.76 16.2 10.55 16.2 10.35C16.2 8.33 14.57 6.7 12.55 6.7ZM15.27 10.75C15.27 11.09 14.99 11.37 14.64 11.37C14.3 11.37 14.02 11.09 14.02 10.75C14.02 9.72 13.18 8.88 12.15 8.88C11.81 8.88 11.53 8.6 11.53 8.26C11.53 7.91 11.81 7.63 12.15 7.63C13.87 7.63 15.27 9.03 15.27 10.75ZM19.46 11.51C19.4 11.8 19.14 11.99 18.86 11.99C18.81 11.99 18.76 11.99 18.72 11.98C18.38 11.9 18.17 11.57 18.25 11.23C18.34 10.84 18.38 10.42 18.38 10.01C18.38 6.98 15.92 4.51 12.89 4.51C12.47 4.51 12.06 4.56 11.66 4.65C11.33 4.73 10.99 4.52 10.92 4.18C10.84 3.84 11.05 3.51 11.39 3.44C11.88 3.32 12.38 3.27 12.89 3.27C16.61 3.27 19.63 6.29 19.63 10.01C19.63 10.52 19.57 11.02 19.46 11.51Z" fill="#343434" fill-opacity="1.000000" fill-rule="nonzero"/>
</svg>
