<svg width="58.000000" height="12.000000" viewBox="0 0 58 12" fill="none" xmlns="http://www.w3.org/2000/svg" xmlns:xlink="http://www.w3.org/1999/xlink">
	<desc>
			Created with Pixso.
	</desc>
	<defs/>
	<rect id="icon / 24x24 / ic24-star" width="12.000000" height="12.000000" fill="#FFFFFF" fill-opacity="0"/>
	<path id="Icon" d="M5.77 8.99L4.04 9.94C3.81 10.07 3.52 9.97 3.4 9.73C3.35 9.63 3.33 9.52 3.35 9.41L3.68 7.4C3.7 7.23 3.65 7.07 3.54 6.95L2.14 5.53C1.95 5.33 1.95 5.02 2.13 4.82C2.2 4.74 2.3 4.69 2.4 4.67L4.34 4.38C4.5 4.36 4.63 4.25 4.7 4.11L5.57 2.27C5.68 2.03 5.97 1.92 6.21 2.05C6.3 2.1 6.38 2.18 6.42 2.27L7.29 4.11C7.36 4.25 7.49 4.36 7.65 4.38L9.59 4.67C9.85 4.71 10.03 4.97 9.99 5.24C9.97 5.35 9.93 5.45 9.85 5.53L8.45 6.95C8.34 7.07 8.29 7.23 8.31 7.4L8.64 9.41C8.69 9.68 8.51 9.94 8.25 9.99C8.15 10.01 8.04 9.99 7.95 9.94L6.22 8.99C6.08 8.91 5.91 8.91 5.77 8.99Z" fill="#000000" fill-opacity="1.000000" fill-rule="evenodd"/>
	<rect id="icon / 24x24 / ic24-star" width="12.000000" height="12.000000" transform="translate(13.000000 0.000000)" fill="#FFFFFF" fill-opacity="0"/>
	<path id="Icon" d="M17.77 8.99L16.04 9.94C15.81 10.07 15.52 9.97 15.4 9.73C15.35 9.63 15.33 9.52 15.35 9.41L15.68 7.4C15.7 7.23 15.65 7.07 15.54 6.95L14.14 5.53C13.95 5.33 13.95 5.02 14.13 4.82C14.2 4.74 14.3 4.69 14.4 4.67L16.34 4.38C16.5 4.36 16.63 4.25 16.7 4.11L17.57 2.27C17.68 2.03 17.97 1.92 18.21 2.05C18.3 2.1 18.38 2.18 18.42 2.27L19.29 4.11C19.36 4.25 19.49 4.36 19.65 4.38L21.59 4.67C21.85 4.71 22.03 4.97 21.99 5.24C21.97 5.35 21.93 5.45 21.85 5.53L20.45 6.95C20.34 7.07 20.29 7.23 20.31 7.4L20.64 9.41C20.69 9.68 20.51 9.94 20.25 9.99C20.15 10.01 20.04 9.99 19.95 9.94L18.22 8.99C18.08 8.91 17.91 8.91 17.77 8.99Z" fill="#000000" fill-opacity="1.000000" fill-rule="evenodd"/>
	<rect id="icon / 24x24 / ic24-star" width="12.000000" height="12.000000" transform="translate(25.000000 0.000000)" fill="#FFFFFF" fill-opacity="0"/>
	<path id="Icon" d="M29.77 8.99L28.04 9.94C27.81 10.07 27.52 9.97 27.4 9.73C27.35 9.63 27.33 9.52 27.35 9.41L27.68 7.4C27.7 7.23 27.65 7.07 27.54 6.95L26.14 5.53C25.95 5.33 25.95 5.02 26.13 4.82C26.2 4.74 26.3 4.69 26.4 4.67L28.34 4.38C28.5 4.36 28.63 4.25 28.7 4.11L29.57 2.27C29.68 2.03 29.97 1.92 30.21 2.05C30.3 2.1 30.38 2.18 30.42 2.27L31.29 4.11C31.36 4.25 31.49 4.36 31.65 4.38L33.59 4.67C33.85 4.71 34.03 4.97 33.99 5.24C33.97 5.35 33.93 5.45 33.85 5.53L32.45 6.95C32.34 7.07 32.29 7.23 32.31 7.4L32.64 9.41C32.69 9.68 32.51 9.94 32.25 9.99C32.15 10.01 32.04 9.99 31.95 9.94L30.22 8.99C30.08 8.91 29.91 8.91 29.77 8.99Z" fill="#000000" fill-opacity="1.000000" fill-rule="evenodd"/>
	<path id="Icon" d="M53.7773 8.99133L52.0461 9.9425C51.8123 10.0709 51.5229 9.97705 51.4001 9.73267C51.3511 9.63525 51.3342 9.5238 51.3521 9.41553L51.6826 7.40088C51.7092 7.23877 51.6577 7.07324 51.5452 6.9585L50.1445 5.53174C49.9553 5.33899 49.9514 5.02258 50.1357 4.82483C50.2092 4.74609 50.3054 4.69482 50.4097 4.67908L52.3452 4.38513C52.501 4.36145 52.6357 4.25928 52.7053 4.11169L53.571 2.27881C53.688 2.03125 53.9749 1.92957 54.2117 2.05176C54.3059 2.10034 54.3823 2.18018 54.429 2.27881L55.2947 4.11169C55.3643 4.25928 55.499 4.36145 55.6548 4.38513L57.5903 4.67908C57.8518 4.71875 58.033 4.97241 57.9949 5.24561C57.9797 5.35449 57.9309 5.45496 57.8555 5.53174L56.4548 6.9585C56.342 7.07324 56.2908 7.23877 56.3174 7.40088L56.6479 9.41553C56.6926 9.68762 56.5176 9.94604 56.2573 9.99268C56.1536 10.0112 56.0469 9.99365 55.9539 9.9425L54.2227 8.99133C54.0833 8.91479 53.9167 8.91479 53.7773 8.99133ZM54.6077 8.29016C54.2285 8.08179 53.7715 8.08179 53.3921 8.29016L52.2439 8.92102L52.4722 7.53052C52.5398 7.11816 52.4084 6.69604 52.116 6.39807L51.1172 5.38074L52.4653 5.17603C52.8872 5.11194 53.2463 4.83923 53.4287 4.45325L54 3.24377L54.571 4.45325C54.7534 4.83923 55.1125 5.11194 55.5347 5.17603L56.8826 5.38074L55.884 6.39807C55.5913 6.69604 55.4602 7.11816 55.5278 7.53052L55.7561 8.92102L54.6077 8.29016Z" clip-rule="evenodd" fill="#000000" fill-opacity="1.000000" fill-rule="evenodd"/>
	<rect id="icon / 24x24 / ic24-star" width="12.000000" height="12.000000" transform="translate(38.000000 0.000000)" fill="#FFFFFF" fill-opacity="0"/>
	<path id="Icon" d="M41.77 8.99L40.04 9.94C39.81 10.07 39.52 9.97 39.4 9.73C39.35 9.63 39.33 9.52 39.35 9.41L39.68 7.4C39.7 7.23 39.65 7.07 39.54 6.95L38.14 5.53C37.95 5.33 37.95 5.02 38.13 4.82C38.2 4.74 38.3 4.69 38.4 4.67L40.34 4.38C40.5 4.36 40.63 4.25 40.7 4.11L41.57 2.27C41.68 2.03 41.97 1.92 42.21 2.05C42.3 2.1 42.38 2.18 42.42 2.27L43.29 4.11C43.36 4.25 43.49 4.36 43.65 4.38L45.59 4.67C45.85 4.71 46.03 4.97 45.99 5.24C45.97 5.35 45.93 5.45 45.85 5.53L44.45 6.95C44.34 7.07 44.29 7.23 44.31 7.4L44.64 9.41C44.69 9.68 44.51 9.94 44.25 9.99C44.15 10.01 44.04 9.99 43.95 9.94L42.22 8.99C42.08 8.91 41.91 8.91 41.77 8.99Z" fill="#000000" fill-opacity="1.000000" fill-rule="evenodd"/>
</svg>
